<svg xmlns="http://www.w3.org/2000/svg" width="1940" height="1060" viewBox="0 0 1940 1060">
<defs>
  <linearGradient id="bg" x1="0" y1="0" x2="0" y2="1"><stop offset="0" stop-color="#102c29"/><stop offset="1" stop-color="#081615"/></linearGradient>
  <linearGradient id="tileGrad" x1="0" y1="0" x2="1" y2="1"><stop offset="0" stop-color="#fffef5"/><stop offset=".55" stop-color="#f6efd8"/><stop offset="1" stop-color="#d9cfb3"/></linearGradient>
  <linearGradient id="bambooGrad" x1="0" y1="0" x2="1" y2="0"><stop offset="0" stop-color="#1c8157"/><stop offset=".5" stop-color="#77a836"/><stop offset="1" stop-color="#176247"/></linearGradient>
  <radialGradient id="dotGrad" cx=".35" cy=".25" r=".8"><stop offset="0" stop-color="#7aa83f"/><stop offset=".65" stop-color="#2e7e67"/><stop offset="1" stop-color="#145147"/></radialGradient>
  <filter id="shadow" x="-20%" y="-20%" width="140%" height="150%"><feDropShadow dx="0" dy="6" stdDeviation="5" flood-color="#000" flood-opacity=".45"/></filter>
  <style>
    .title{font-family:"Microsoft YaHei","Noto Sans CJK SC",sans-serif;font-size:26px;font-weight:700;fill:#f1e4bc;letter-spacing:1px}
    .subtitle{font-family:"Microsoft YaHei","Noto Sans CJK SC",sans-serif;font-size:14px;fill:#a9c8b5}
    .caption{font-family:"Consolas","Microsoft YaHei",sans-serif;font-size:15px;font-weight:700;fill:#e7d7a9}
    .wan{font-family:"Microsoft YaHei","Noto Serif CJK SC",serif;font-size:82px;font-weight:700;fill:#ba3032}
    .wanSmall{font-family:"Microsoft YaHei","Noto Serif CJK SC",serif;font-size:38px;font-weight:700;fill:#ba3032}
    .suitMark{font-family:"Microsoft YaHei","Noto Sans CJK SC",sans-serif;font-size:16px;font-weight:700;fill:#286e5d}
    .zhong{font-family:"Microsoft YaHei","Noto Serif CJK SC",serif;font-size:105px;font-weight:700;fill:#c4252c}
    .fa{font-family:"Microsoft YaHei","Noto Serif CJK SC",serif;font-size:105px;font-weight:700;fill:#16824c}
  </style>
</defs>
<rect width="1940" height="1060" fill="url(#bg)"/>
<text x="20" y="28" class="title">邳州麻将牌面参考图集</text>
<text x="1920" y="28" text-anchor="end" class="subtitle">30种唯一牌面 · 每种4张 · 共120张 · 不含风牌和花牌</text><g transform="translate(20,55)">
    <rect x="0" y="0" width="140" height="220" rx="14" fill="url(#tileGrad)" stroke="#c7bda1" stroke-width="2" filter="url(#shadow)"/>
    <rect x="8" y="8" width="124" height="204" rx="9" fill="#fffdf2" stroke="#d7cdb3" stroke-width="1.5"/>
    <text x="70" y="112" text-anchor="middle" class="wan">一</text><text x="70" y="168" text-anchor="middle" class="wanSmall">萬</text>
    <text x="70" y="254" text-anchor="middle" class="caption">WAN_1</text>
  </g><g transform="translate(180,55)">
    <rect x="0" y="0" width="140" height="220" rx="14" fill="url(#tileGrad)" stroke="#c7bda1" stroke-width="2" filter="url(#shadow)"/>
    <rect x="8" y="8" width="124" height="204" rx="9" fill="#fffdf2" stroke="#d7cdb3" stroke-width="1.5"/>
    <text x="70" y="112" text-anchor="middle" class="wan">二</text><text x="70" y="168" text-anchor="middle" class="wanSmall">萬</text>
    <text x="70" y="254" text-anchor="middle" class="caption">WAN_2</text>
  </g><g transform="translate(340,55)">
    <rect x="0" y="0" width="140" height="220" rx="14" fill="url(#tileGrad)" stroke="#c7bda1" stroke-width="2" filter="url(#shadow)"/>
    <rect x="8" y="8" width="124" height="204" rx="9" fill="#fffdf2" stroke="#d7cdb3" stroke-width="1.5"/>
    <text x="70" y="112" text-anchor="middle" class="wan">三</text><text x="70" y="168" text-anchor="middle" class="wanSmall">萬</text>
    <text x="70" y="254" text-anchor="middle" class="caption">WAN_3</text>
  </g><g transform="translate(500,55)">
    <rect x="0" y="0" width="140" height="220" rx="14" fill="url(#tileGrad)" stroke="#c7bda1" stroke-width="2" filter="url(#shadow)"/>
    <rect x="8" y="8" width="124" height="204" rx="9" fill="#fffdf2" stroke="#d7cdb3" stroke-width="1.5"/>
    <text x="70" y="112" text-anchor="middle" class="wan">四</text><text x="70" y="168" text-anchor="middle" class="wanSmall">萬</text>
    <text x="70" y="254" text-anchor="middle" class="caption">WAN_4</text>
  </g><g transform="translate(660,55)">
    <rect x="0" y="0" width="140" height="220" rx="14" fill="url(#tileGrad)" stroke="#c7bda1" stroke-width="2" filter="url(#shadow)"/>
    <rect x="8" y="8" width="124" height="204" rx="9" fill="#fffdf2" stroke="#d7cdb3" stroke-width="1.5"/>
    <text x="70" y="112" text-anchor="middle" class="wan">五</text><text x="70" y="168" text-anchor="middle" class="wanSmall">萬</text>
    <text x="70" y="254" text-anchor="middle" class="caption">WAN_5</text>
  </g><g transform="translate(820,55)">
    <rect x="0" y="0" width="140" height="220" rx="14" fill="url(#tileGrad)" stroke="#c7bda1" stroke-width="2" filter="url(#shadow)"/>
    <rect x="8" y="8" width="124" height="204" rx="9" fill="#fffdf2" stroke="#d7cdb3" stroke-width="1.5"/>
    <text x="70" y="112" text-anchor="middle" class="wan">六</text><text x="70" y="168" text-anchor="middle" class="wanSmall">萬</text>
    <text x="70" y="254" text-anchor="middle" class="caption">WAN_6</text>
  </g><g transform="translate(980,55)">
    <rect x="0" y="0" width="140" height="220" rx="14" fill="url(#tileGrad)" stroke="#c7bda1" stroke-width="2" filter="url(#shadow)"/>
    <rect x="8" y="8" width="124" height="204" rx="9" fill="#fffdf2" stroke="#d7cdb3" stroke-width="1.5"/>
    <text x="70" y="112" text-anchor="middle" class="wan">七</text><text x="70" y="168" text-anchor="middle" class="wanSmall">萬</text>
    <text x="70" y="254" text-anchor="middle" class="caption">WAN_7</text>
  </g><g transform="translate(1140,55)">
    <rect x="0" y="0" width="140" height="220" rx="14" fill="url(#tileGrad)" stroke="#c7bda1" stroke-width="2" filter="url(#shadow)"/>
    <rect x="8" y="8" width="124" height="204" rx="9" fill="#fffdf2" stroke="#d7cdb3" stroke-width="1.5"/>
    <text x="70" y="112" text-anchor="middle" class="wan">八</text><text x="70" y="168" text-anchor="middle" class="wanSmall">萬</text>
    <text x="70" y="254" text-anchor="middle" class="caption">WAN_8</text>
  </g><g transform="translate(1300,55)">
    <rect x="0" y="0" width="140" height="220" rx="14" fill="url(#tileGrad)" stroke="#c7bda1" stroke-width="2" filter="url(#shadow)"/>
    <rect x="8" y="8" width="124" height="204" rx="9" fill="#fffdf2" stroke="#d7cdb3" stroke-width="1.5"/>
    <text x="70" y="112" text-anchor="middle" class="wan">九</text><text x="70" y="168" text-anchor="middle" class="wanSmall">萬</text>
    <text x="70" y="254" text-anchor="middle" class="caption">WAN_9</text>
  </g><g transform="translate(1460,55)">
    <rect x="0" y="0" width="140" height="220" rx="14" fill="url(#tileGrad)" stroke="#c7bda1" stroke-width="2" filter="url(#shadow)"/>
    <rect x="8" y="8" width="124" height="204" rx="9" fill="#fffdf2" stroke="#d7cdb3" stroke-width="1.5"/>
    <text x="70" y="145" text-anchor="middle" class="zhong">中</text>
    <text x="70" y="254" text-anchor="middle" class="caption">DRAGON_ZHONG</text>
  </g><g transform="translate(20,375)">
    <rect x="0" y="0" width="140" height="220" rx="14" fill="url(#tileGrad)" stroke="#c7bda1" stroke-width="2" filter="url(#shadow)"/>
    <rect x="8" y="8" width="124" height="204" rx="9" fill="#fffdf2" stroke="#d7cdb3" stroke-width="1.5"/>
    <g><g transform="translate(62,86)">
    <rect x="0" y="0" width="16" height="68" rx="7" fill="url(#bambooGrad)" stroke="#1f6d49" stroke-width="1"/>
    <path d="M1 16h14M1 34h14M1 52h14" stroke="#e5c76c" stroke-width="3"/>
    <path d="M4 4v58" stroke="#f0e8b0" stroke-width="2" opacity=".6"/>
  </g></g><text x="70" y="207" text-anchor="middle" class="suitMark">条 1</text>
    <text x="70" y="254" text-anchor="middle" class="caption">TIAO_1</text>
  </g><g transform="translate(180,375)">
    <rect x="0" y="0" width="140" height="220" rx="14" fill="url(#tileGrad)" stroke="#c7bda1" stroke-width="2" filter="url(#shadow)"/>
    <rect x="8" y="8" width="124" height="204" rx="9" fill="#fffdf2" stroke="#d7cdb3" stroke-width="1.5"/>
    <g><g transform="translate(39,44)">
    <rect x="0" y="0" width="16" height="68" rx="7" fill="url(#bambooGrad)" stroke="#1f6d49" stroke-width="1"/>
    <path d="M1 16h14M1 34h14M1 52h14" stroke="#e5c76c" stroke-width="3"/>
    <path d="M4 4v58" stroke="#f0e8b0" stroke-width="2" opacity=".6"/>
  </g><g transform="translate(85,128)">
    <rect x="0" y="0" width="16" height="68" rx="7" fill="url(#bambooGrad)" stroke="#1f6d49" stroke-width="1"/>
    <path d="M1 16h14M1 34h14M1 52h14" stroke="#e5c76c" stroke-width="3"/>
    <path d="M4 4v58" stroke="#f0e8b0" stroke-width="2" opacity=".6"/>
  </g></g><text x="70" y="207" text-anchor="middle" class="suitMark">条 2</text>
    <text x="70" y="254" text-anchor="middle" class="caption">TIAO_2</text>
  </g><g transform="translate(340,375)">
    <rect x="0" y="0" width="140" height="220" rx="14" fill="url(#tileGrad)" stroke="#c7bda1" stroke-width="2" filter="url(#shadow)"/>
    <rect x="8" y="8" width="124" height="204" rx="9" fill="#fffdf2" stroke="#d7cdb3" stroke-width="1.5"/>
    <g><g transform="translate(39,36)">
    <rect x="0" y="0" width="16" height="68" rx="7" fill="url(#bambooGrad)" stroke="#1f6d49" stroke-width="1"/>
    <path d="M1 16h14M1 34h14M1 52h14" stroke="#e5c76c" stroke-width="3"/>
    <path d="M4 4v58" stroke="#f0e8b0" stroke-width="2" opacity=".6"/>
  </g><g transform="translate(62,86)">
    <rect x="0" y="0" width="16" height="68" rx="7" fill="url(#bambooGrad)" stroke="#1f6d49" stroke-width="1"/>
    <path d="M1 16h14M1 34h14M1 52h14" stroke="#e5c76c" stroke-width="3"/>
    <path d="M4 4v58" stroke="#f0e8b0" stroke-width="2" opacity=".6"/>
  </g><g transform="translate(85,136)">
    <rect x="0" y="0" width="16" height="68" rx="7" fill="url(#bambooGrad)" stroke="#1f6d49" stroke-width="1"/>
    <path d="M1 16h14M1 34h14M1 52h14" stroke="#e5c76c" stroke-width="3"/>
    <path d="M4 4v58" stroke="#f0e8b0" stroke-width="2" opacity=".6"/>
  </g></g><text x="70" y="207" text-anchor="middle" class="suitMark">条 3</text>
    <text x="70" y="254" text-anchor="middle" class="caption">TIAO_3</text>
  </g><g transform="translate(500,375)">
    <rect x="0" y="0" width="140" height="220" rx="14" fill="url(#tileGrad)" stroke="#c7bda1" stroke-width="2" filter="url(#shadow)"/>
    <rect x="8" y="8" width="124" height="204" rx="9" fill="#fffdf2" stroke="#d7cdb3" stroke-width="1.5"/>
    <g><g transform="translate(37,38)">
    <rect x="0" y="0" width="16" height="68" rx="7" fill="url(#bambooGrad)" stroke="#1f6d49" stroke-width="1"/>
    <path d="M1 16h14M1 34h14M1 52h14" stroke="#e5c76c" stroke-width="3"/>
    <path d="M4 4v58" stroke="#f0e8b0" stroke-width="2" opacity=".6"/>
  </g><g transform="translate(87,38)">
    <rect x="0" y="0" width="16" height="68" rx="7" fill="url(#bambooGrad)" stroke="#1f6d49" stroke-width="1"/>
    <path d="M1 16h14M1 34h14M1 52h14" stroke="#e5c76c" stroke-width="3"/>
    <path d="M4 4v58" stroke="#f0e8b0" stroke-width="2" opacity=".6"/>
  </g><g transform="translate(37,134)">
    <rect x="0" y="0" width="16" height="68" rx="7" fill="url(#bambooGrad)" stroke="#1f6d49" stroke-width="1"/>
    <path d="M1 16h14M1 34h14M1 52h14" stroke="#e5c76c" stroke-width="3"/>
    <path d="M4 4v58" stroke="#f0e8b0" stroke-width="2" opacity=".6"/>
  </g><g transform="translate(87,134)">
    <rect x="0" y="0" width="16" height="68" rx="7" fill="url(#bambooGrad)" stroke="#1f6d49" stroke-width="1"/>
    <path d="M1 16h14M1 34h14M1 52h14" stroke="#e5c76c" stroke-width="3"/>
    <path d="M4 4v58" stroke="#f0e8b0" stroke-width="2" opacity=".6"/>
  </g></g><text x="70" y="207" text-anchor="middle" class="suitMark">条 4</text>
    <text x="70" y="254" text-anchor="middle" class="caption">TIAO_4</text>
  </g><g transform="translate(660,375)">
    <rect x="0" y="0" width="140" height="220" rx="14" fill="url(#tileGrad)" stroke="#c7bda1" stroke-width="2" filter="url(#shadow)"/>
    <rect x="8" y="8" width="124" height="204" rx="9" fill="#fffdf2" stroke="#d7cdb3" stroke-width="1.5"/>
    <g><g transform="translate(37,38)">
    <rect x="0" y="0" width="16" height="68" rx="7" fill="url(#bambooGrad)" stroke="#1f6d49" stroke-width="1"/>
    <path d="M1 16h14M1 34h14M1 52h14" stroke="#e5c76c" stroke-width="3"/>
    <path d="M4 4v58" stroke="#f0e8b0" stroke-width="2" opacity=".6"/>
  </g><g transform="translate(87,38)">
    <rect x="0" y="0" width="16" height="68" rx="7" fill="url(#bambooGrad)" stroke="#1f6d49" stroke-width="1"/>
    <path d="M1 16h14M1 34h14M1 52h14" stroke="#e5c76c" stroke-width="3"/>
    <path d="M4 4v58" stroke="#f0e8b0" stroke-width="2" opacity=".6"/>
  </g><g transform="translate(62,86)">
    <rect x="0" y="0" width="16" height="68" rx="7" fill="url(#bambooGrad)" stroke="#1f6d49" stroke-width="1"/>
    <path d="M1 16h14M1 34h14M1 52h14" stroke="#e5c76c" stroke-width="3"/>
    <path d="M4 4v58" stroke="#f0e8b0" stroke-width="2" opacity=".6"/>
  </g><g transform="translate(37,134)">
    <rect x="0" y="0" width="16" height="68" rx="7" fill="url(#bambooGrad)" stroke="#1f6d49" stroke-width="1"/>
    <path d="M1 16h14M1 34h14M1 52h14" stroke="#e5c76c" stroke-width="3"/>
    <path d="M4 4v58" stroke="#f0e8b0" stroke-width="2" opacity=".6"/>
  </g><g transform="translate(87,134)">
    <rect x="0" y="0" width="16" height="68" rx="7" fill="url(#bambooGrad)" stroke="#1f6d49" stroke-width="1"/>
    <path d="M1 16h14M1 34h14M1 52h14" stroke="#e5c76c" stroke-width="3"/>
    <path d="M4 4v58" stroke="#f0e8b0" stroke-width="2" opacity=".6"/>
  </g></g><text x="70" y="207" text-anchor="middle" class="suitMark">条 5</text>
    <text x="70" y="254" text-anchor="middle" class="caption">TIAO_5</text>
  </g><g transform="translate(820,375)">
    <rect x="0" y="0" width="140" height="220" rx="14" fill="url(#tileGrad)" stroke="#c7bda1" stroke-width="2" filter="url(#shadow)"/>
    <rect x="8" y="8" width="124" height="204" rx="9" fill="#fffdf2" stroke="#d7cdb3" stroke-width="1.5"/>
    <g><g transform="translate(34,36)">
    <rect x="0" y="0" width="16" height="68" rx="7" fill="url(#bambooGrad)" stroke="#1f6d49" stroke-width="1"/>
    <path d="M1 16h14M1 34h14M1 52h14" stroke="#e5c76c" stroke-width="3"/>
    <path d="M4 4v58" stroke="#f0e8b0" stroke-width="2" opacity=".6"/>
  </g><g transform="translate(62,36)">
    <rect x="0" y="0" width="16" height="68" rx="7" fill="url(#bambooGrad)" stroke="#1f6d49" stroke-width="1"/>
    <path d="M1 16h14M1 34h14M1 52h14" stroke="#e5c76c" stroke-width="3"/>
    <path d="M4 4v58" stroke="#f0e8b0" stroke-width="2" opacity=".6"/>
  </g><g transform="translate(90,36)">
    <rect x="0" y="0" width="16" height="68" rx="7" fill="url(#bambooGrad)" stroke="#1f6d49" stroke-width="1"/>
    <path d="M1 16h14M1 34h14M1 52h14" stroke="#e5c76c" stroke-width="3"/>
    <path d="M4 4v58" stroke="#f0e8b0" stroke-width="2" opacity=".6"/>
  </g><g transform="translate(34,136)">
    <rect x="0" y="0" width="16" height="68" rx="7" fill="url(#bambooGrad)" stroke="#1f6d49" stroke-width="1"/>
    <path d="M1 16h14M1 34h14M1 52h14" stroke="#e5c76c" stroke-width="3"/>
    <path d="M4 4v58" stroke="#f0e8b0" stroke-width="2" opacity=".6"/>
  </g><g transform="translate(62,136)">
    <rect x="0" y="0" width="16" height="68" rx="7" fill="url(#bambooGrad)" stroke="#1f6d49" stroke-width="1"/>
    <path d="M1 16h14M1 34h14M1 52h14" stroke="#e5c76c" stroke-width="3"/>
    <path d="M4 4v58" stroke="#f0e8b0" stroke-width="2" opacity=".6"/>
  </g><g transform="translate(90,136)">
    <rect x="0" y="0" width="16" height="68" rx="7" fill="url(#bambooGrad)" stroke="#1f6d49" stroke-width="1"/>
    <path d="M1 16h14M1 34h14M1 52h14" stroke="#e5c76c" stroke-width="3"/>
    <path d="M4 4v58" stroke="#f0e8b0" stroke-width="2" opacity=".6"/>
  </g></g><text x="70" y="207" text-anchor="middle" class="suitMark">条 6</text>
    <text x="70" y="254" text-anchor="middle" class="caption">TIAO_6</text>
  </g><g transform="translate(980,375)">
    <rect x="0" y="0" width="140" height="220" rx="14" fill="url(#tileGrad)" stroke="#c7bda1" stroke-width="2" filter="url(#shadow)"/>
    <rect x="8" y="8" width="124" height="204" rx="9" fill="#fffdf2" stroke="#d7cdb3" stroke-width="1.5"/>
    <g><g transform="translate(34,28)">
    <rect x="0" y="0" width="16" height="68" rx="7" fill="url(#bambooGrad)" stroke="#1f6d49" stroke-width="1"/>
    <path d="M1 16h14M1 34h14M1 52h14" stroke="#e5c76c" stroke-width="3"/>
    <path d="M4 4v58" stroke="#f0e8b0" stroke-width="2" opacity=".6"/>
  </g><g transform="translate(62,28)">
    <rect x="0" y="0" width="16" height="68" rx="7" fill="url(#bambooGrad)" stroke="#1f6d49" stroke-width="1"/>
    <path d="M1 16h14M1 34h14M1 52h14" stroke="#e5c76c" stroke-width="3"/>
    <path d="M4 4v58" stroke="#f0e8b0" stroke-width="2" opacity=".6"/>
  </g><g transform="translate(90,28)">
    <rect x="0" y="0" width="16" height="68" rx="7" fill="url(#bambooGrad)" stroke="#1f6d49" stroke-width="1"/>
    <path d="M1 16h14M1 34h14M1 52h14" stroke="#e5c76c" stroke-width="3"/>
    <path d="M4 4v58" stroke="#f0e8b0" stroke-width="2" opacity=".6"/>
  </g><g transform="translate(62,86)">
    <rect x="0" y="0" width="16" height="68" rx="7" fill="url(#bambooGrad)" stroke="#1f6d49" stroke-width="1"/>
    <path d="M1 16h14M1 34h14M1 52h14" stroke="#e5c76c" stroke-width="3"/>
    <path d="M4 4v58" stroke="#f0e8b0" stroke-width="2" opacity=".6"/>
  </g><g transform="translate(34,144)">
    <rect x="0" y="0" width="16" height="68" rx="7" fill="url(#bambooGrad)" stroke="#1f6d49" stroke-width="1"/>
    <path d="M1 16h14M1 34h14M1 52h14" stroke="#e5c76c" stroke-width="3"/>
    <path d="M4 4v58" stroke="#f0e8b0" stroke-width="2" opacity=".6"/>
  </g><g transform="translate(62,144)">
    <rect x="0" y="0" width="16" height="68" rx="7" fill="url(#bambooGrad)" stroke="#1f6d49" stroke-width="1"/>
    <path d="M1 16h14M1 34h14M1 52h14" stroke="#e5c76c" stroke-width="3"/>
    <path d="M4 4v58" stroke="#f0e8b0" stroke-width="2" opacity=".6"/>
  </g><g transform="translate(90,144)">
    <rect x="0" y="0" width="16" height="68" rx="7" fill="url(#bambooGrad)" stroke="#1f6d49" stroke-width="1"/>
    <path d="M1 16h14M1 34h14M1 52h14" stroke="#e5c76c" stroke-width="3"/>
    <path d="M4 4v58" stroke="#f0e8b0" stroke-width="2" opacity=".6"/>
  </g></g><text x="70" y="207" text-anchor="middle" class="suitMark">条 7</text>
    <text x="70" y="254" text-anchor="middle" class="caption">TIAO_7</text>
  </g><g transform="translate(1140,375)">
    <rect x="0" y="0" width="140" height="220" rx="14" fill="url(#tileGrad)" stroke="#c7bda1" stroke-width="2" filter="url(#shadow)"/>
    <rect x="8" y="8" width="124" height="204" rx="9" fill="#fffdf2" stroke="#d7cdb3" stroke-width="1.5"/>
    <g><g transform="translate(34,28)">
    <rect x="0" y="0" width="16" height="68" rx="7" fill="url(#bambooGrad)" stroke="#1f6d49" stroke-width="1"/>
    <path d="M1 16h14M1 34h14M1 52h14" stroke="#e5c76c" stroke-width="3"/>
    <path d="M4 4v58" stroke="#f0e8b0" stroke-width="2" opacity=".6"/>
  </g><g transform="translate(62,28)">
    <rect x="0" y="0" width="16" height="68" rx="7" fill="url(#bambooGrad)" stroke="#1f6d49" stroke-width="1"/>
    <path d="M1 16h14M1 34h14M1 52h14" stroke="#e5c76c" stroke-width="3"/>
    <path d="M4 4v58" stroke="#f0e8b0" stroke-width="2" opacity=".6"/>
  </g><g transform="translate(90,28)">
    <rect x="0" y="0" width="16" height="68" rx="7" fill="url(#bambooGrad)" stroke="#1f6d49" stroke-width="1"/>
    <path d="M1 16h14M1 34h14M1 52h14" stroke="#e5c76c" stroke-width="3"/>
    <path d="M4 4v58" stroke="#f0e8b0" stroke-width="2" opacity=".6"/>
  </g><g transform="translate(34,144)">
    <rect x="0" y="0" width="16" height="68" rx="7" fill="url(#bambooGrad)" stroke="#1f6d49" stroke-width="1"/>
    <path d="M1 16h14M1 34h14M1 52h14" stroke="#e5c76c" stroke-width="3"/>
    <path d="M4 4v58" stroke="#f0e8b0" stroke-width="2" opacity=".6"/>
  </g><g transform="translate(62,144)">
    <rect x="0" y="0" width="16" height="68" rx="7" fill="url(#bambooGrad)" stroke="#1f6d49" stroke-width="1"/>
    <path d="M1 16h14M1 34h14M1 52h14" stroke="#e5c76c" stroke-width="3"/>
    <path d="M4 4v58" stroke="#f0e8b0" stroke-width="2" opacity=".6"/>
  </g><g transform="translate(90,144)">
    <rect x="0" y="0" width="16" height="68" rx="7" fill="url(#bambooGrad)" stroke="#1f6d49" stroke-width="1"/>
    <path d="M1 16h14M1 34h14M1 52h14" stroke="#e5c76c" stroke-width="3"/>
    <path d="M4 4v58" stroke="#f0e8b0" stroke-width="2" opacity=".6"/>
  </g><g transform="translate(34,86)">
    <rect x="0" y="0" width="16" height="68" rx="7" fill="url(#bambooGrad)" stroke="#1f6d49" stroke-width="1"/>
    <path d="M1 16h14M1 34h14M1 52h14" stroke="#e5c76c" stroke-width="3"/>
    <path d="M4 4v58" stroke="#f0e8b0" stroke-width="2" opacity=".6"/>
  </g><g transform="translate(90,86)">
    <rect x="0" y="0" width="16" height="68" rx="7" fill="url(#bambooGrad)" stroke="#1f6d49" stroke-width="1"/>
    <path d="M1 16h14M1 34h14M1 52h14" stroke="#e5c76c" stroke-width="3"/>
    <path d="M4 4v58" stroke="#f0e8b0" stroke-width="2" opacity=".6"/>
  </g></g><text x="70" y="207" text-anchor="middle" class="suitMark">条 8</text>
    <text x="70" y="254" text-anchor="middle" class="caption">TIAO_8</text>
  </g><g transform="translate(1300,375)">
    <rect x="0" y="0" width="140" height="220" rx="14" fill="url(#tileGrad)" stroke="#c7bda1" stroke-width="2" filter="url(#shadow)"/>
    <rect x="8" y="8" width="124" height="204" rx="9" fill="#fffdf2" stroke="#d7cdb3" stroke-width="1.5"/>
    <g><g transform="translate(34,28)">
    <rect x="0" y="0" width="16" height="68" rx="7" fill="url(#bambooGrad)" stroke="#1f6d49" stroke-width="1"/>
    <path d="M1 16h14M1 34h14M1 52h14" stroke="#e5c76c" stroke-width="3"/>
    <path d="M4 4v58" stroke="#f0e8b0" stroke-width="2" opacity=".6"/>
  </g><g transform="translate(62,28)">
    <rect x="0" y="0" width="16" height="68" rx="7" fill="url(#bambooGrad)" stroke="#1f6d49" stroke-width="1"/>
    <path d="M1 16h14M1 34h14M1 52h14" stroke="#e5c76c" stroke-width="3"/>
    <path d="M4 4v58" stroke="#f0e8b0" stroke-width="2" opacity=".6"/>
  </g><g transform="translate(90,28)">
    <rect x="0" y="0" width="16" height="68" rx="7" fill="url(#bambooGrad)" stroke="#1f6d49" stroke-width="1"/>
    <path d="M1 16h14M1 34h14M1 52h14" stroke="#e5c76c" stroke-width="3"/>
    <path d="M4 4v58" stroke="#f0e8b0" stroke-width="2" opacity=".6"/>
  </g><g transform="translate(34,86)">
    <rect x="0" y="0" width="16" height="68" rx="7" fill="url(#bambooGrad)" stroke="#1f6d49" stroke-width="1"/>
    <path d="M1 16h14M1 34h14M1 52h14" stroke="#e5c76c" stroke-width="3"/>
    <path d="M4 4v58" stroke="#f0e8b0" stroke-width="2" opacity=".6"/>
  </g><g transform="translate(62,86)">
    <rect x="0" y="0" width="16" height="68" rx="7" fill="url(#bambooGrad)" stroke="#1f6d49" stroke-width="1"/>
    <path d="M1 16h14M1 34h14M1 52h14" stroke="#e5c76c" stroke-width="3"/>
    <path d="M4 4v58" stroke="#f0e8b0" stroke-width="2" opacity=".6"/>
  </g><g transform="translate(90,86)">
    <rect x="0" y="0" width="16" height="68" rx="7" fill="url(#bambooGrad)" stroke="#1f6d49" stroke-width="1"/>
    <path d="M1 16h14M1 34h14M1 52h14" stroke="#e5c76c" stroke-width="3"/>
    <path d="M4 4v58" stroke="#f0e8b0" stroke-width="2" opacity=".6"/>
  </g><g transform="translate(34,144)">
    <rect x="0" y="0" width="16" height="68" rx="7" fill="url(#bambooGrad)" stroke="#1f6d49" stroke-width="1"/>
    <path d="M1 16h14M1 34h14M1 52h14" stroke="#e5c76c" stroke-width="3"/>
    <path d="M4 4v58" stroke="#f0e8b0" stroke-width="2" opacity=".6"/>
  </g><g transform="translate(62,144)">
    <rect x="0" y="0" width="16" height="68" rx="7" fill="url(#bambooGrad)" stroke="#1f6d49" stroke-width="1"/>
    <path d="M1 16h14M1 34h14M1 52h14" stroke="#e5c76c" stroke-width="3"/>
    <path d="M4 4v58" stroke="#f0e8b0" stroke-width="2" opacity=".6"/>
  </g><g transform="translate(90,144)">
    <rect x="0" y="0" width="16" height="68" rx="7" fill="url(#bambooGrad)" stroke="#1f6d49" stroke-width="1"/>
    <path d="M1 16h14M1 34h14M1 52h14" stroke="#e5c76c" stroke-width="3"/>
    <path d="M4 4v58" stroke="#f0e8b0" stroke-width="2" opacity=".6"/>
  </g></g><text x="70" y="207" text-anchor="middle" class="suitMark">条 9</text>
    <text x="70" y="254" text-anchor="middle" class="caption">TIAO_9</text>
  </g><g transform="translate(1460,375)">
    <rect x="0" y="0" width="140" height="220" rx="14" fill="url(#tileGrad)" stroke="#c7bda1" stroke-width="2" filter="url(#shadow)"/>
    <rect x="8" y="8" width="124" height="204" rx="9" fill="#fffdf2" stroke="#d7cdb3" stroke-width="1.5"/>
    <text x="70" y="145" text-anchor="middle" class="fa">發</text>
    <text x="70" y="254" text-anchor="middle" class="caption">DRAGON_FA</text>
  </g><g transform="translate(20,695)">
    <rect x="0" y="0" width="140" height="220" rx="14" fill="url(#tileGrad)" stroke="#c7bda1" stroke-width="2" filter="url(#shadow)"/>
    <rect x="8" y="8" width="124" height="204" rx="9" fill="#fffdf2" stroke="#d7cdb3" stroke-width="1.5"/>
    <g><circle cx="70" cy="120" r="13" fill="url(#dotGrad)" stroke="#216b63" stroke-width="2"/><circle cx="70" cy="120" r="4" fill="#f5e6a1"/></g><text x="70" y="207" text-anchor="middle" class="suitMark">筒 1</text>
    <text x="70" y="254" text-anchor="middle" class="caption">TONG_1</text>
  </g><g transform="translate(180,695)">
    <rect x="0" y="0" width="140" height="220" rx="14" fill="url(#tileGrad)" stroke="#c7bda1" stroke-width="2" filter="url(#shadow)"/>
    <rect x="8" y="8" width="124" height="204" rx="9" fill="#fffdf2" stroke="#d7cdb3" stroke-width="1.5"/>
    <g><circle cx="47" cy="78" r="13" fill="url(#dotGrad)" stroke="#216b63" stroke-width="2"/><circle cx="47" cy="78" r="4" fill="#f5e6a1"/><circle cx="93" cy="162" r="13" fill="url(#dotGrad)" stroke="#216b63" stroke-width="2"/><circle cx="93" cy="162" r="4" fill="#f5e6a1"/></g><text x="70" y="207" text-anchor="middle" class="suitMark">筒 2</text>
    <text x="70" y="254" text-anchor="middle" class="caption">TONG_2</text>
  </g><g transform="translate(340,695)">
    <rect x="0" y="0" width="140" height="220" rx="14" fill="url(#tileGrad)" stroke="#c7bda1" stroke-width="2" filter="url(#shadow)"/>
    <rect x="8" y="8" width="124" height="204" rx="9" fill="#fffdf2" stroke="#d7cdb3" stroke-width="1.5"/>
    <g><circle cx="47" cy="70" r="13" fill="url(#dotGrad)" stroke="#216b63" stroke-width="2"/><circle cx="47" cy="70" r="4" fill="#f5e6a1"/><circle cx="70" cy="120" r="13" fill="url(#dotGrad)" stroke="#216b63" stroke-width="2"/><circle cx="70" cy="120" r="4" fill="#f5e6a1"/><circle cx="93" cy="170" r="13" fill="url(#dotGrad)" stroke="#216b63" stroke-width="2"/><circle cx="93" cy="170" r="4" fill="#f5e6a1"/></g><text x="70" y="207" text-anchor="middle" class="suitMark">筒 3</text>
    <text x="70" y="254" text-anchor="middle" class="caption">TONG_3</text>
  </g><g transform="translate(500,695)">
    <rect x="0" y="0" width="140" height="220" rx="14" fill="url(#tileGrad)" stroke="#c7bda1" stroke-width="2" filter="url(#shadow)"/>
    <rect x="8" y="8" width="124" height="204" rx="9" fill="#fffdf2" stroke="#d7cdb3" stroke-width="1.5"/>
    <g><circle cx="45" cy="72" r="13" fill="url(#dotGrad)" stroke="#216b63" stroke-width="2"/><circle cx="45" cy="72" r="4" fill="#f5e6a1"/><circle cx="95" cy="72" r="13" fill="url(#dotGrad)" stroke="#216b63" stroke-width="2"/><circle cx="95" cy="72" r="4" fill="#f5e6a1"/><circle cx="45" cy="168" r="13" fill="url(#dotGrad)" stroke="#216b63" stroke-width="2"/><circle cx="45" cy="168" r="4" fill="#f5e6a1"/><circle cx="95" cy="168" r="13" fill="url(#dotGrad)" stroke="#216b63" stroke-width="2"/><circle cx="95" cy="168" r="4" fill="#f5e6a1"/></g><text x="70" y="207" text-anchor="middle" class="suitMark">筒 4</text>
    <text x="70" y="254" text-anchor="middle" class="caption">TONG_4</text>
  </g><g transform="translate(660,695)">
    <rect x="0" y="0" width="140" height="220" rx="14" fill="url(#tileGrad)" stroke="#c7bda1" stroke-width="2" filter="url(#shadow)"/>
    <rect x="8" y="8" width="124" height="204" rx="9" fill="#fffdf2" stroke="#d7cdb3" stroke-width="1.5"/>
    <g><circle cx="45" cy="72" r="13" fill="url(#dotGrad)" stroke="#216b63" stroke-width="2"/><circle cx="45" cy="72" r="4" fill="#f5e6a1"/><circle cx="95" cy="72" r="13" fill="url(#dotGrad)" stroke="#216b63" stroke-width="2"/><circle cx="95" cy="72" r="4" fill="#f5e6a1"/><circle cx="70" cy="120" r="13" fill="url(#dotGrad)" stroke="#216b63" stroke-width="2"/><circle cx="70" cy="120" r="4" fill="#f5e6a1"/><circle cx="45" cy="168" r="13" fill="url(#dotGrad)" stroke="#216b63" stroke-width="2"/><circle cx="45" cy="168" r="4" fill="#f5e6a1"/><circle cx="95" cy="168" r="13" fill="url(#dotGrad)" stroke="#216b63" stroke-width="2"/><circle cx="95" cy="168" r="4" fill="#f5e6a1"/></g><text x="70" y="207" text-anchor="middle" class="suitMark">筒 5</text>
    <text x="70" y="254" text-anchor="middle" class="caption">TONG_5</text>
  </g><g transform="translate(820,695)">
    <rect x="0" y="0" width="140" height="220" rx="14" fill="url(#tileGrad)" stroke="#c7bda1" stroke-width="2" filter="url(#shadow)"/>
    <rect x="8" y="8" width="124" height="204" rx="9" fill="#fffdf2" stroke="#d7cdb3" stroke-width="1.5"/>
    <g><circle cx="42" cy="70" r="13" fill="url(#dotGrad)" stroke="#216b63" stroke-width="2"/><circle cx="42" cy="70" r="4" fill="#f5e6a1"/><circle cx="70" cy="70" r="13" fill="url(#dotGrad)" stroke="#216b63" stroke-width="2"/><circle cx="70" cy="70" r="4" fill="#f5e6a1"/><circle cx="98" cy="70" r="13" fill="url(#dotGrad)" stroke="#216b63" stroke-width="2"/><circle cx="98" cy="70" r="4" fill="#f5e6a1"/><circle cx="42" cy="170" r="13" fill="url(#dotGrad)" stroke="#216b63" stroke-width="2"/><circle cx="42" cy="170" r="4" fill="#f5e6a1"/><circle cx="70" cy="170" r="13" fill="url(#dotGrad)" stroke="#216b63" stroke-width="2"/><circle cx="70" cy="170" r="4" fill="#f5e6a1"/><circle cx="98" cy="170" r="13" fill="url(#dotGrad)" stroke="#216b63" stroke-width="2"/><circle cx="98" cy="170" r="4" fill="#f5e6a1"/></g><text x="70" y="207" text-anchor="middle" class="suitMark">筒 6</text>
    <text x="70" y="254" text-anchor="middle" class="caption">TONG_6</text>
  </g><g transform="translate(980,695)">
    <rect x="0" y="0" width="140" height="220" rx="14" fill="url(#tileGrad)" stroke="#c7bda1" stroke-width="2" filter="url(#shadow)"/>
    <rect x="8" y="8" width="124" height="204" rx="9" fill="#fffdf2" stroke="#d7cdb3" stroke-width="1.5"/>
    <g><circle cx="42" cy="62" r="13" fill="url(#dotGrad)" stroke="#216b63" stroke-width="2"/><circle cx="42" cy="62" r="4" fill="#f5e6a1"/><circle cx="70" cy="62" r="13" fill="url(#dotGrad)" stroke="#216b63" stroke-width="2"/><circle cx="70" cy="62" r="4" fill="#f5e6a1"/><circle cx="98" cy="62" r="13" fill="url(#dotGrad)" stroke="#216b63" stroke-width="2"/><circle cx="98" cy="62" r="4" fill="#f5e6a1"/><circle cx="70" cy="120" r="13" fill="url(#dotGrad)" stroke="#216b63" stroke-width="2"/><circle cx="70" cy="120" r="4" fill="#f5e6a1"/><circle cx="42" cy="178" r="13" fill="url(#dotGrad)" stroke="#216b63" stroke-width="2"/><circle cx="42" cy="178" r="4" fill="#f5e6a1"/><circle cx="70" cy="178" r="13" fill="url(#dotGrad)" stroke="#216b63" stroke-width="2"/><circle cx="70" cy="178" r="4" fill="#f5e6a1"/><circle cx="98" cy="178" r="13" fill="url(#dotGrad)" stroke="#216b63" stroke-width="2"/><circle cx="98" cy="178" r="4" fill="#f5e6a1"/></g><text x="70" y="207" text-anchor="middle" class="suitMark">筒 7</text>
    <text x="70" y="254" text-anchor="middle" class="caption">TONG_7</text>
  </g><g transform="translate(1140,695)">
    <rect x="0" y="0" width="140" height="220" rx="14" fill="url(#tileGrad)" stroke="#c7bda1" stroke-width="2" filter="url(#shadow)"/>
    <rect x="8" y="8" width="124" height="204" rx="9" fill="#fffdf2" stroke="#d7cdb3" stroke-width="1.5"/>
    <g><circle cx="42" cy="62" r="13" fill="url(#dotGrad)" stroke="#216b63" stroke-width="2"/><circle cx="42" cy="62" r="4" fill="#f5e6a1"/><circle cx="70" cy="62" r="13" fill="url(#dotGrad)" stroke="#216b63" stroke-width="2"/><circle cx="70" cy="62" r="4" fill="#f5e6a1"/><circle cx="98" cy="62" r="13" fill="url(#dotGrad)" stroke="#216b63" stroke-width="2"/><circle cx="98" cy="62" r="4" fill="#f5e6a1"/><circle cx="42" cy="178" r="13" fill="url(#dotGrad)" stroke="#216b63" stroke-width="2"/><circle cx="42" cy="178" r="4" fill="#f5e6a1"/><circle cx="70" cy="178" r="13" fill="url(#dotGrad)" stroke="#216b63" stroke-width="2"/><circle cx="70" cy="178" r="4" fill="#f5e6a1"/><circle cx="98" cy="178" r="13" fill="url(#dotGrad)" stroke="#216b63" stroke-width="2"/><circle cx="98" cy="178" r="4" fill="#f5e6a1"/><circle cx="42" cy="120" r="13" fill="url(#dotGrad)" stroke="#216b63" stroke-width="2"/><circle cx="42" cy="120" r="4" fill="#f5e6a1"/><circle cx="98" cy="120" r="13" fill="url(#dotGrad)" stroke="#216b63" stroke-width="2"/><circle cx="98" cy="120" r="4" fill="#f5e6a1"/></g><text x="70" y="207" text-anchor="middle" class="suitMark">筒 8</text>
    <text x="70" y="254" text-anchor="middle" class="caption">TONG_8</text>
  </g><g transform="translate(1300,695)">
    <rect x="0" y="0" width="140" height="220" rx="14" fill="url(#tileGrad)" stroke="#c7bda1" stroke-width="2" filter="url(#shadow)"/>
    <rect x="8" y="8" width="124" height="204" rx="9" fill="#fffdf2" stroke="#d7cdb3" stroke-width="1.5"/>
    <g><circle cx="42" cy="62" r="13" fill="url(#dotGrad)" stroke="#216b63" stroke-width="2"/><circle cx="42" cy="62" r="4" fill="#f5e6a1"/><circle cx="70" cy="62" r="13" fill="url(#dotGrad)" stroke="#216b63" stroke-width="2"/><circle cx="70" cy="62" r="4" fill="#f5e6a1"/><circle cx="98" cy="62" r="13" fill="url(#dotGrad)" stroke="#216b63" stroke-width="2"/><circle cx="98" cy="62" r="4" fill="#f5e6a1"/><circle cx="42" cy="120" r="13" fill="url(#dotGrad)" stroke="#216b63" stroke-width="2"/><circle cx="42" cy="120" r="4" fill="#f5e6a1"/><circle cx="70" cy="120" r="13" fill="url(#dotGrad)" stroke="#216b63" stroke-width="2"/><circle cx="70" cy="120" r="4" fill="#f5e6a1"/><circle cx="98" cy="120" r="13" fill="url(#dotGrad)" stroke="#216b63" stroke-width="2"/><circle cx="98" cy="120" r="4" fill="#f5e6a1"/><circle cx="42" cy="178" r="13" fill="url(#dotGrad)" stroke="#216b63" stroke-width="2"/><circle cx="42" cy="178" r="4" fill="#f5e6a1"/><circle cx="70" cy="178" r="13" fill="url(#dotGrad)" stroke="#216b63" stroke-width="2"/><circle cx="70" cy="178" r="4" fill="#f5e6a1"/><circle cx="98" cy="178" r="13" fill="url(#dotGrad)" stroke="#216b63" stroke-width="2"/><circle cx="98" cy="178" r="4" fill="#f5e6a1"/></g><text x="70" y="207" text-anchor="middle" class="suitMark">筒 9</text>
    <text x="70" y="254" text-anchor="middle" class="caption">TONG_9</text>
  </g><g transform="translate(1460,695)">
    <rect x="0" y="0" width="140" height="220" rx="14" fill="url(#tileGrad)" stroke="#c7bda1" stroke-width="2" filter="url(#shadow)"/>
    <rect x="8" y="8" width="124" height="204" rx="9" fill="#fffdf2" stroke="#d7cdb3" stroke-width="1.5"/>
    <rect x="29" y="43" width="82" height="134" rx="6" fill="#fffef6" stroke="#3b7b73" stroke-width="4"/><rect x="38" y="52" width="64" height="116" rx="3" fill="none" stroke="#b1c7bd" stroke-width="2"/>
    <text x="70" y="254" text-anchor="middle" class="caption">DRAGON_BAI</text>
  </g><text x="20" y="1025" class="subtitle">程序映射：WAN=万，TIAO=条，TONG=筒，DRAGON_ZHONG=中，DRAGON_FA=发，DRAGON_BAI=白。请按牌面ID复制4张生成牌库。</text></svg>
